RBDS001runT35_grf
version=1
nRows=12
nColumns=19
inDegrees=no
endheader
time	ground_force_r_vx	ground_force_r_vy	ground_force_r_vz	ground_force_r_px	ground_force_r_py	ground_force_r_pz	ground_force_r_mx	ground_force_r_my	ground_force_r_mz	ground_force_l_vx	ground_force_l_vy	ground_force_l_vz	ground_force_l_px	ground_force_l_py	ground_force_l_pz	ground_force_l_mx	ground_force_l_my	ground_force_l_mz
     14.99900000	   -160.17816926	    609.30373272	    -18.92752464	      2.61816348	      0.00000000	      1.05756914	     -0.00000000	     -3.75246771	      0.00000000	      0.00000000	      0.00000000	      0.00000000	      0.00000000	      0.00000000	      0.00000000	      0.00000000	      0.00000000	      0.00000000
     15.00000000	   -163.36815837	    632.80560248	    -19.09123658	      2.61617953	      0.00000000	      1.05665154	     -0.00000000	     -3.52349021	      0.00000000	      0.00000000	      0.00000000	      0.00000000	      0.00000000	      0.00000000	      0.00000000	      0.00000000	      0.00000000	      0.00000000
     15.00100000	   -166.03427382	    655.48806364	    -18.96003158	      2.61402968	      0.00000000	      1.05576198	     -0.00000000	     -3.25750298	      0.00000000	      0.00000000	      0.00000000	      0.00000000	      0.00000000	      0.00000000	      0.00000000	      0.00000000	      0.00000000	      0.00000000
     15.00200000	   -168.70038927	    678.17052479	    -18.82882659	      2.61187982	      0.00000000	      1.05487241	     -0.00000000	     -2.99151576	      0.00000000	      0.00000000	      0.00000000	      0.00000000	      0.00000000	      0.00000000	      0.00000000	      0.00000000	      0.00000000	      0.00000000
     15.00300000	   -171.36650471	    700.85298595	    -18.69762160	      2.60972997	      0.00000000	      1.05398285	     -0.00000000	     -2.72552853	      0.00000000	      0.00000000	      0.00000000	      0.00000000	      0.00000000	      0.00000000	      0.00000000	      0.00000000	      0.00000000	      0.00000000
     15.00400000	   -173.67183841	    722.93448400	    -18.37658198	      2.60746540	      0.00000000	      1.05311499	     -0.00000000	     -2.43637875	      0.00000000	      0.00000000	      0.00000000	      0.00000000	      0.00000000	      0.00000000	      0.00000000	      0.00000000	      0.00000000	      0.00000000
     15.00500000	   -175.79678124	    744.71550050	    -17.96062505	      2.60514349	      0.00000000	      1.05225800	     -0.00000000	     -2.13564769	      0.00000000	      0.00000000	      0.00000000	      0.00000000	      0.00000000	      0.00000000	      0.00000000	      0.00000000	      0.00000000	      0.00000000
     15.00600000	   -177.92172406	    766.49651699	    -17.54466812	      2.60282157	      0.00000000	      1.05140101	     -0.00000000	     -1.83491663	      0.00000000	      0.00000000	      0.00000000	      0.00000000	      0.00000000	      0.00000000	      0.00000000	      0.00000000	      0.00000000	      0.00000000
     15.00700000	   -179.86527058	    787.95418647	    -17.04146064	      2.60044216	      0.00000000	      1.05055633	     -0.00000000	     -1.52388651	      0.00000000	      0.00000000	      0.00000000	      0.00000000	      0.00000000	      0.00000000	      0.00000000	      0.00000000	      0.00000000	      0.00000000
     15.00800000	   -181.44602449	    808.76516191	    -16.36375206	      2.59794776	      0.00000000	      1.04973630	     -0.00000000	     -1.19225828	      0.00000000	      0.00000000	      0.00000000	      0.00000000	      0.00000000	      0.00000000	      0.00000000	      0.00000000	      0.00000000	      0.00000000
     15.00900000	   -183.02677840	    829.57613735	    -15.68604348	      2.59545335	      0.00000000	      1.04891627	     -0.00000000	     -0.86063005	      0.00000000	      0.00000000	      0.00000000	      0.00000000	      0.00000000	      0.00000000	      0.00000000	      0.00000000	      0.00000000	      0.00000000
     15.01000000	   -184.60753231	    850.38711279	    -15.00833490	      2.59295895	      0.00000000	      1.04809624	     -0.00000000	     -0.52900182	      0.00000000	      0.00000000	      0.00000000	      0.00000000	      0.00000000	      0.00000000	      0.00000000	      0.00000000	      0.00000000	      0.00000000
